<?xml version="1.0" encoding="UTF-8"?>
<svg id="Layer_1" xmlns="http://www.w3.org/2000/svg" version="1.1" viewBox="0 0 64 64">
  <!-- Generator: Adobe Illustrator 29.8.7, SVG Export Plug-In . SVG Version: 2.1.1 Build 1)  -->
  <defs>
    <style>
      .st0 {
        fill: #222230;
        stroke: #00a154;
        stroke-width: 4px;
      }

      .st1 {
        fill: #fff;
      }

      .st2 {
        fill: #0f0f19;
      }
    </style>
  </defs>
  <rect class="st2" width="64" height="64" rx="12" ry="12"/>
  <rect class="st0" x="8.8" y="8.8" width="46.3" height="46.3" rx="7.9" ry="7.9"/>
  <path id="C" class="st1" d="M42.3,42.1c-1.2,1-2.5,1.8-4,2.4-1.5.6-3,.8-4.6.8s-2.4-.2-3.5-.5-2.2-.8-3.2-1.3c-1-.6-1.9-1.3-2.7-2.1-.8-.8-1.5-1.7-2.1-2.7s-1-2-1.3-3.2c-.3-1.1-.5-2.3-.5-3.5s.2-2.4.5-3.5.8-2.2,1.3-3.2c.6-1,1.3-1.9,2.1-2.7s1.7-1.5,2.7-2.1,2-1,3.2-1.3c1.1-.3,2.3-.5,3.5-.5s3.1.3,4.6.8,2.8,1.3,4,2.4l-2.7,4.5c-.8-.8-1.6-1.4-2.7-1.9-1-.4-2.1-.7-3.2-.7s-2.2.2-3.2.6-1.9,1-2.6,1.8c-.7.7-1.3,1.6-1.8,2.6-.4,1-.6,2.1-.6,3.2s.2,2.2.6,3.2,1,1.9,1.8,2.6c.7.7,1.6,1.3,2.6,1.8,1,.4,2.1.6,3.2.6s2.2-.2,3.2-.7c1-.4,1.9-1.1,2.7-1.9,0,0,2.7,4.5,2.7,4.5Z"/>
</svg>